<svg width="401" height="438" viewBox="0 0 401 438" fill="none" xmlns="http://www.w3.org/2000/svg">
<path fill-rule="evenodd" clip-rule="evenodd" d="M190.71 21.9046V15.7609C194.934 11.0572 197.91 5.87343 200.309 0.0177307C202.805 5.87343 205.781 11.0572 209.909 15.7609V21.9046L205.109 27.2803L200.309 21.9046L195.51 27.2803L190.71 21.9046Z" fill="#DAAE43"/>
<path fill-rule="evenodd" clip-rule="evenodd" d="M319.343 218.791C313.968 219.367 301.392 223.11 296.209 225.126C300.336 218.215 312.72 212.551 319.919 209.479C330.287 205.063 344.59 201.799 355.918 196.904C362.253 194.216 367.341 190.184 371.757 186.056C381.068 177.321 388.076 164.649 389.228 151.786C393.164 161.29 396.907 172.617 395.756 182.792C394.7 192.968 391.244 198.824 383.276 206.119C375.789 213.031 366.477 216.871 354.958 218.791C343.15 220.711 331.055 217.543 319.343 218.791ZM200.309 360.095C188.694 347.616 179.287 335.521 160.567 333.697C141.56 331.873 132.345 344.256 119.002 357.312C108.25 367.775 99.0346 372.479 83.5794 371.231C75.7078 370.559 57.7567 362.783 54.8768 353.376C66.6842 358.56 93.2749 346.752 102.97 341.184C116.506 333.313 129.081 326.785 143.288 320.161C132.345 314.306 118.33 306.722 105.562 306.722C92.9869 306.722 80.9875 311.714 69.5641 316.802C63.6124 319.49 58.2367 321.985 51.613 321.985C31.166 321.985 21.0866 308.93 14.4629 290.403C23.0065 293.571 32.798 297.411 42.9734 296.163C51.133 295.203 58.3327 292.419 65.9163 289.635C73.9799 286.659 83.4834 285.027 92.027 285.027C105.658 285.027 115.93 292.227 125.817 300.77C119.674 275.332 103.45 250.661 74.0759 250.661C60.4446 250.661 46.5253 259.397 33.2779 256.805C16.0948 253.637 5.63134 242.789 1.69553 228.87C-0.416358 220.999 -0.320363 211.879 1.31155 203.239C12.735 217.927 25.5023 227.526 44.5094 229.062C56.5088 230.118 68.2202 226.662 80.3155 227.814C92.6989 229.062 101.626 232.614 110.746 241.733C114.97 245.861 119.962 255.461 120.538 256.613C122.841 241.253 117.466 227.238 106.522 216.967C93.2749 204.583 74.6518 198.824 56.5088 191.432C41.4375 185.384 29.2461 177.321 24.1584 161.194C17.7267 141.035 25.6943 112.14 41.3415 96.3008C40.2856 111.18 43.6454 127.499 51.997 139.979C62.7484 156.01 80.4115 164.169 95.7708 174.921C126.969 196.712 131.001 237.798 130.425 245.285C134.073 233.67 138.681 221.095 138.969 208.807C139.257 193.448 132.537 175.305 123.225 162.441C107.386 140.459 92.6989 121.932 95.0028 95.1489C98.3626 56.5589 134.553 28.6243 169.975 17.9688C169.687 19.2167 155.576 36.5919 151.256 44.8474C141.56 63.4705 135.801 78.7337 135.705 99.7567C135.609 115.788 140.313 130.379 147.8 144.394C158.744 164.937 167.191 185.864 166.135 208.807C164.791 236.454 141.752 248.837 135.033 272.836C129.081 294.243 152.504 299.235 167.383 299.907C182.07 300.482 190.038 307.682 200.309 318.05C210.677 307.682 218.645 300.482 233.332 299.907C248.211 299.235 271.634 294.243 265.586 272.836C258.963 248.837 235.924 236.454 234.58 208.807C233.524 185.864 241.971 164.937 252.915 144.394C260.402 130.379 265.106 115.788 265.01 99.7567C264.914 78.7337 259.154 63.4705 249.363 44.8474C245.139 36.5919 230.932 19.2167 230.74 17.9688C266.066 28.6243 302.256 56.5589 305.712 95.1489C308.016 121.932 293.233 140.459 277.394 162.441C268.178 175.305 261.362 193.448 261.746 208.807C262.034 221.095 266.546 233.67 270.194 245.285C269.618 237.798 273.746 196.712 304.944 174.921C320.303 164.169 337.871 156.01 348.718 139.979C357.07 127.499 360.429 111.18 359.373 96.3008C375.021 112.14 382.988 141.035 376.557 161.194C371.373 177.321 359.181 185.384 344.206 191.432C325.967 198.824 307.344 204.583 294.193 216.967C283.249 227.238 277.874 241.253 280.177 256.613C280.753 255.461 285.745 245.861 289.969 241.733C298.992 232.614 308.016 229.062 320.399 227.814C332.495 226.662 344.206 230.118 356.206 229.062C375.117 227.526 387.98 217.927 399.403 203.239C400.939 211.879 401.131 220.999 398.923 228.87C395.084 242.789 384.524 253.637 367.437 256.805C354.19 259.397 340.27 250.661 326.639 250.661C297.265 250.661 280.945 275.332 274.898 300.77C284.785 292.227 295.057 285.027 308.592 285.027C317.232 285.027 326.735 286.659 334.703 289.635C342.382 292.419 349.582 295.203 357.741 296.163C367.917 297.411 377.708 293.571 386.252 290.403C379.628 308.93 369.549 321.985 349.102 321.985C342.478 321.985 337.103 319.49 331.055 316.802C319.631 311.714 307.728 306.722 295.153 306.722C282.385 306.722 268.37 314.306 257.427 320.161C271.634 326.785 284.113 333.313 297.745 341.184C307.44 346.752 334.031 358.56 345.838 353.376C342.958 362.783 324.911 370.559 317.136 371.231C301.68 372.479 292.369 367.775 281.713 357.312C268.274 344.256 259.154 331.873 240.051 333.697C221.428 335.521 212.021 347.616 200.309 360.095ZM322.415 260.357C335.183 259.781 343.918 263.812 357.166 265.444C375.021 267.652 386.732 261.796 396.811 254.117C395.18 275.908 376.749 288.099 357.454 285.891C340.846 283.971 324.911 275.428 308.208 275.428C301.584 275.428 296.401 277.732 290.353 280.324C293.425 267.652 310.8 260.837 322.415 260.357ZM345.742 116.172C344.206 133.835 331.727 143.146 318.479 152.362C300.624 164.745 282.769 177.321 272.114 197C272.978 187.304 276.818 177.609 282.481 169.737C296.785 149.578 312.72 134.891 316.848 109.644C320.111 90.4451 308.496 55.8869 302.352 44.3675C307.728 45.7114 315.696 52.6231 319.727 56.5589C337.391 73.934 347.854 91.9811 345.742 116.172ZM345.166 330.241C353.134 330.625 358.797 329.185 366.477 326.689C362.157 338.305 351.118 345.216 338.734 345.6C328.847 345.888 318.479 341.952 309.936 335.329C302.544 329.569 282.097 319.298 274.994 319.394C284.689 316.514 291.697 314.978 301.872 315.938C317.136 317.282 329.423 329.377 345.166 330.241ZM55.4528 330.241C71.292 329.377 83.5794 317.282 98.8426 315.938C109.018 314.978 116.026 316.514 125.625 319.394C118.522 319.298 98.1706 329.569 90.683 335.329C82.1395 341.952 71.868 345.888 61.9805 345.6C49.5971 345.216 38.5577 338.305 34.2379 326.689C41.9175 329.185 47.5812 330.625 55.4528 330.241ZM54.9728 116.172C52.8609 91.9811 63.3244 73.934 80.9875 56.5589C84.9233 52.6231 92.8909 45.7114 98.3626 44.3675C92.2189 55.8869 80.6035 90.4451 83.7714 109.644C87.9952 134.891 103.834 149.578 118.234 169.737C123.897 177.609 127.737 187.304 128.601 197C117.946 177.321 100.091 164.745 82.2355 152.362C68.9881 143.146 56.5088 133.835 54.9728 116.172ZM78.2997 260.357C89.8191 260.837 107.194 267.652 110.362 280.324C104.314 277.732 99.1306 275.428 92.5069 275.428C75.8038 275.428 59.8686 283.971 43.2614 285.891C23.9664 288.099 5.53534 275.908 3.90342 254.117C13.9829 261.796 25.6943 267.652 43.5494 265.444C56.7967 263.812 65.5323 259.781 78.2997 260.357ZM81.2755 218.791C69.6601 217.543 57.4687 220.711 45.7573 218.791C34.2379 216.871 24.9264 213.031 17.4387 206.119C9.47114 198.824 6.01532 192.968 4.95937 182.792C3.80743 172.617 7.55124 161.29 11.487 151.786C12.639 164.649 19.6466 177.321 28.9582 186.056C33.3739 190.184 38.3657 194.216 44.7974 196.904C56.1248 201.799 70.4281 205.063 80.7955 209.479C87.9952 212.551 100.379 218.215 104.41 225.126C99.3226 223.11 86.7472 219.367 81.2755 218.791Z" fill="#DAAE43"/>
<path fill-rule="evenodd" clip-rule="evenodd" d="M121.785 415.581C121.785 424.988 118.33 428.924 112.762 428.924C107.386 428.924 103.738 424.892 103.738 415.581V393.022C103.738 387.07 98.3627 383.614 93.3709 383.71V393.886V414.717C93.3709 430.172 100.283 437.276 112.474 437.276C124.665 437.276 132.249 430.076 132.249 414.621V393.886V393.598V383.71C127.257 383.614 121.785 386.302 121.785 393.022C121.785 399.741 121.785 408.093 121.785 415.581ZM165.463 294.051C168.919 282.627 172.375 267.364 173.527 252.389L190.806 27.2804L195.222 32.0801L185.622 299.715C180.534 296.547 174.775 294.531 167.383 294.243C166.807 294.147 166.135 294.147 165.463 294.051ZM203.861 31.0242L212.309 301.634C208.277 304.514 204.533 308.162 200.309 312.29C196.182 308.162 192.438 304.514 188.406 301.634L196.854 31.0242L200.309 27.1844L203.861 31.0242ZM215.093 299.715L205.493 32.0801L209.813 27.2804L227.188 252.389C228.34 267.364 231.796 282.627 235.156 294.051C234.58 294.147 233.908 294.147 233.332 294.243C225.94 294.531 220.18 296.547 215.093 299.715ZM259.059 385.342C256.467 384.094 252.531 382.942 247.443 382.942C235.732 382.942 228.724 389.566 228.724 398.206C228.724 405.117 233.812 410.109 241.971 413.469C248.019 416.061 250.611 418.269 250.611 422.108C250.611 426.044 247.539 428.732 241.779 428.732L238.9 428.54C234.772 428.252 229.78 429.788 228.052 434.3C230.548 435.74 236.02 437.18 241.395 437.18C253.971 437.18 261.074 430.46 261.074 421.244C261.074 414.333 257.235 409.437 248.499 405.693C241.875 402.717 239.188 400.989 239.188 397.246C239.188 394.27 241.683 391.006 247.155 391.39L249.939 391.486C254.067 391.774 258.579 389.662 259.059 385.342ZM284.785 383.71L262.226 436.508C266.45 438.332 271.826 437.948 274.226 432.284L276.53 426.524H293.041L295.345 432.284C297.745 437.948 303.12 438.332 307.344 436.508L284.785 383.71ZM278.834 418.845L284.785 404.445L290.737 418.845H278.834ZM198.966 427.964V413.277H214.709V405.021H198.966V392.158H213.557C219.029 392.158 221.236 387.742 221.14 383.71C211.061 383.71 198.678 383.71 188.598 383.71V436.508C198.678 436.508 211.061 436.508 221.236 436.508C221.236 432.38 219.029 427.964 213.557 427.964H198.966ZM170.551 413.661L140.601 383.71V436.508C145.112 436.604 150.296 434.108 150.008 428.06V405.597L180.055 436.508V383.71C175.447 383.614 170.551 386.014 170.551 392.158V413.661Z" fill="#DAAE43"/>
</svg>
